<svg id="line" xmlns="http://www.w3.org/2000/svg" width="64" height="64" viewBox="0 0 64 64"><title>chemical</title><path d="M13,37a1,1,0,0,0-1,1A25.028,25.028,0,0,0,37,63a1,1,0,0,0,1-1A25.028,25.028,0,0,0,13,37ZM33.707,58.707a1,1,0,0,1-1.414,0l-12-12a1,1,0,0,1,1.414-1.414l12,12A1,1,0,0,1,33.707,58.707Z" style="fill:#c4a2fc"/><path d="M37,49.655a27.2,27.2,0,0,1,9.163-10.181,29.266,29.266,0,0,0-8.456-18.181,1.029,1.029,0,0,0-1.414,0,29.268,29.268,0,0,0-8.46,18.178A27.2,27.2,0,0,1,37,49.655Z" style="fill:#c4a2fc"/><path d="M61,37A25.032,25.032,0,0,0,38.082,52.025a26.928,26.928,0,0,1,1.6,5.878l12.61-12.61a1,1,0,0,1,1.414,1.414L39.952,60.462a6.974,6.974,0,0,1-.083,2.368A25.031,25.031,0,0,0,62,38,1,1,0,0,0,61,37Z" style="fill:#c4a2fc"/><path d="M25,18.1V3h2a1,1,0,0,0,0-2H11a1,1,0,0,0,0,2h2V18.1a17,17,0,1,0,12,0ZM14.312,19.758a1,1,0,0,0,.688-.95V3h8V18.808a1,1,0,0,0,.687.95A14.973,14.973,0,0,1,31,25H7.005A14.975,14.975,0,0,1,14.312,19.758ZM19,49A15,15,0,0,1,5.736,27H32.264A15,15,0,0,1,19,49Z" style="fill:#151a6a"/><path d="M16.273,43.611A10.037,10.037,0,0,1,9,34a1,1,0,0,0-2,0,12.045,12.045,0,0,0,8.727,11.535,1,1,0,1,0,.546-1.924Z" style="fill:#151a6a"/></svg>